<svg xmlns="http://www.w3.org/2000/svg" viewBox="0 0 841.9 595.3">
    <g fill="#61DAFB">
        <path d="M666.3 296.5c0-32.5-40.7-63.3-103.1-82.4 14.4-63.6 8-114.2-20.2-130.4-6.5-3.8-14.1-5.6-22.4-5.6v22.3c4.6 0 8.3.9 11.4 2.6 13.6 7.8 19.5 37.5 14.9 75.7L501.5 204c-10.4-6.6-22.4-12.2-35.2-16.5-22.6-7.5-47.4-11.4-73.2-11.4-32.1 0-62.5 6.7-89.4 19.2-28.4 13.3-52.1 31.8-69.6 54.2-17.4 22.3-28.8 48.3-33.2 76.9-4.3 28.5-1.5 58.9 7.9 89.7 9.4 30.8 25.9 60.2 48.7 86.6 22.9 26.4 52.4 48.3 87.2 64.1 34.8 15.8 75.2 23.8 119.3 23.8 20.9 0 41.1-2.3 60.1-6.7 19.1-4.4 37.2-11.1 53.8-19.6 16.6-8.5 31.7-18.9 44.8-30.7 13.1-11.8 24.1-25.3 32.6-40.1 8.5-14.8 14.8-30.8 18.6-47.6 3.8-16.8 5.6-34.3 5.6-52.1zM530.6 330.1c-12.2 1.8-24.4 3.8-36.5 6.1-11.8 2.3-23.4 5.1-34.7 8.4-11.3 3.3-22.1 7.1-32.4 11.3l-2.6 1c-10.1 4.1-19.8 8.6-29 13.5-9.2 4.9-17.9 10.1-26.1 15.6-8.2 5.5-15.7 11.3-22.6 17.4-6.9 6.1-13.2 12.5-18.8 19.1-5.6 6.6-10.5 13.5-14.8 20.7-4.2 7.2-7.7 14.6-10.5 22.3-2.8 7.7-4.9 15.6-6.4 23.7-1.5 8.1-2.3 16.3-2.6 24.6-.2 8.3.2 16.5.9 24.5 2.6 31.7 11.8 59.5 27.2 82.4 15.4 22.9 37.1 40.4 64.1 51.5 27 11.1 58.4 15.7 92.6 13.7 34.2-2 65.4-10.5 92.3-25.2 26.9-14.7 48.5-35.2 63.5-60.6 15-25.4 22.8-55.4 22.8-88.3 0-12.2-.9-23.8-2.6-34.7-1.8-11-4.4-21.5-7.9-31.4-3.5-10-7.9-19.5-13.1-28.4-5.2-9-11.3-17.4-18.1-25.2-6.8-7.8-14.4-14.9-22.6-21.3-8.2-6.4-17.2-12.1-26.6-17-9.5-4.9-19.6-9.1-30.1-12.5-10.5-3.4-21.4-6-32.4-7.9zM501.1 188.5c3.7-30.7-1.5-52.9-12.2-60.6-3.1-2.1-7.2-3.5-12.2-3.5v-22.3c14.4 0 27.3 5.2 37.2 14.4 13.9 12.8 20.8 33.9 17.2 61.8L501.1 188.5z"/>
        <circle cx="420.9" cy="296.5" r="45.7"/>
        <path d="M520.5 78.1z"/>
    </g>
</svg>
